HIERARCHY
ROOT Hips
{
	OFFSET 0.000000 94.554123 0.000000
	CHANNELS 6 Xposition Yposition Zposition Xrotation Yrotation Zrotation 
	JOINT Spine
	{
		OFFSET 0.000000 9.988899 -0.514100
		CHANNELS 3 Xrotation Yrotation Zrotation
		JOINT Spine1
		{
			OFFSET 0.000000 8.324053 -0.428393
			CHANNELS 3 Xrotation Yrotation Zrotation
			JOINT Spine1_split
			{
				OFFSET 0.000000 8.324053 -0.428393
				CHANNELS 3 Xrotation Yrotation Zrotation
				JOINT Spine2
				{
					OFFSET 0.000000 8.324053 -0.428393
					CHANNELS 3 Xrotation Yrotation Zrotation
					JOINT Neck
					{
						OFFSET 0.000000 14.983261 -0.771106
						CHANNELS 3 Xrotation Yrotation Zrotation
						JOINT Head
						{
							OFFSET 0.000000 10.043304 2.801000
							CHANNELS 3 Xrotation Yrotation Zrotation
							JOINT HeadTop_End
							{
								OFFSET 0.000000 19.370499 5.402200
								CHANNELS 3 Xrotation Yrotation Zrotation
								End Site
								{
									OFFSET 0.000000 0.000000 0.000000
								}
							}
						}
					}
					JOINT LeftShoulder
					{
						OFFSET 2.945400 6.709992 -0.372963
						CHANNELS 3 Xrotation Yrotation Zrotation
						JOINT LeftShoulder_split
						{
							OFFSET 2.945400 6.709992 -0.372963
							CHANNELS 3 Xrotation Yrotation Zrotation
							JOINT LeftArm
							{
								OFFSET 11.984735 -3.101700 0.050316
								CHANNELS 3 Xrotation Yrotation Zrotation
								JOINT LeftForeArm
								{
									OFFSET 23.321905 0.000000 0.000000
									CHANNELS 3 Xrotation Yrotation Zrotation
									JOINT LeftHand
									{
										OFFSET 25.153908 0.000000 0.000001
										CHANNELS 3 Xrotation Yrotation Zrotation
										JOINT LeftHandThumb1
										{
											OFFSET 2.688713 -1.230148 2.514884
											CHANNELS 3 Xrotation Yrotation Zrotation
											JOINT LeftHandThumb2
											{
												OFFSET 2.405396 -1.388763 1.388756
												CHANNELS 3 Xrotation Yrotation Zrotation
												JOINT LeftHandThumb3
												{
													OFFSET 2.395073 -1.382797 1.382794
													CHANNELS 3 Xrotation Yrotation Zrotation
													JOINT LeftHandThumb4
													{
														OFFSET 1.881668 -1.086380 1.086381
														CHANNELS 3 Xrotation Yrotation Zrotation
														End Site
														{
															OFFSET 0.000000 0.000000 0.000000
														}
													}
												}
											}
										}
										JOINT LeftHandIndex1
										{
											OFFSET 8.511635 -0.363083 2.405464
											CHANNELS 3 Xrotation Yrotation Zrotation
											JOINT LeftHandIndex2
											{
												OFFSET 3.013802 0.000000 0.000000
												CHANNELS 3 Xrotation Yrotation Zrotation
												JOINT LeftHandIndex3
												{
													OFFSET 2.795700 0.000000 0.000000
													CHANNELS 3 Xrotation Yrotation Zrotation
													JOINT LeftHandIndex4
													{
														OFFSET 2.454002 0.000000 0.000000
														CHANNELS 3 Xrotation Yrotation Zrotation
														End Site
														{
															OFFSET 0.000000 0.000000 0.000000
														}
													}
												}
											}
										}
										JOINT LeftHandMiddle1
										{
											OFFSET 8.357803 0.000000 0.000000
											CHANNELS 3 Xrotation Yrotation Zrotation
											JOINT LeftHandMiddle2
											{
												OFFSET 3.307404 0.000000 0.000000
												CHANNELS 3 Xrotation Yrotation Zrotation
												JOINT LeftHandMiddle3
												{
													OFFSET 3.061005 0.000000 0.000000
													CHANNELS 3 Xrotation Yrotation Zrotation
													JOINT LeftHandMiddle4
													{
														OFFSET 2.645699 0.000000 0.000000
														CHANNELS 3 Xrotation Yrotation Zrotation
														End Site
														{
															OFFSET 0.000000 0.000000 0.000000
														}
													}
												}
											}
										}
										JOINT LeftHandRing1
										{
											OFFSET 8.235176 -0.073303 -2.048958
											CHANNELS 3 Xrotation Yrotation Zrotation
											JOINT LeftHandRing2
											{
												OFFSET 2.814804 0.000000 0.000000
												CHANNELS 3 Xrotation Yrotation Zrotation
												JOINT LeftHandRing3
												{
													OFFSET 2.662102 0.000000 0.000000
													CHANNELS 3 Xrotation Yrotation Zrotation
													JOINT LeftHandRing4
													{
														OFFSET 2.324699 0.000000 0.000000
														CHANNELS 3 Xrotation Yrotation Zrotation
														End Site
														{
															OFFSET 0.000000 0.000000 0.000000
														}
													}
												}
											}
										}
										JOINT LeftHandPinky1
										{
											OFFSET 7.776482 -0.344757 -4.135562
											CHANNELS 3 Xrotation Yrotation Zrotation
											JOINT LeftHandPinky2
											{
												OFFSET 2.337105 0.000000 0.000000
												CHANNELS 3 Xrotation Yrotation Zrotation
												JOINT LeftHandPinky3
												{
													OFFSET 1.932404 0.000000 0.000000
													CHANNELS 3 Xrotation Yrotation Zrotation
													JOINT LeftHandPinky4
													{
														OFFSET 1.642700 0.000000 0.000000
														CHANNELS 3 Xrotation Yrotation Zrotation
														End Site
														{
															OFFSET 0.000000 0.000000 0.000000
														}
													}
												}
											}
										}
									}
								}
							}
						}
					}
					JOINT RightShoulder
					{
						OFFSET -2.945400 6.709999 -0.398147
						CHANNELS 3 Xrotation Yrotation Zrotation
						JOINT RightShoulder_split
						{
							OFFSET -2.945400 6.709999 -0.398147
							CHANNELS 3 Xrotation Yrotation Zrotation
							JOINT RightArm
							{
								OFFSET -11.984732 -3.101715 -0.050333
								CHANNELS 3 Xrotation Yrotation Zrotation
								JOINT RightForeArm
								{
									OFFSET -23.311098 0.000000 0.000001
									CHANNELS 3 Xrotation Yrotation Zrotation
									JOINT RightHand
									{
										OFFSET -25.158005 0.000000 0.000001
										CHANNELS 3 Xrotation Yrotation Zrotation
										JOINT RightHandThumb1
										{
											OFFSET -2.727959 -1.171844 2.549707
											CHANNELS 3 Xrotation Yrotation Zrotation
											JOINT RightHandThumb2
											{
												OFFSET -2.425117 -1.400146 1.400141
												CHANNELS 3 Xrotation Yrotation Zrotation
												JOINT RightHandThumb3
												{
													OFFSET -2.302261 -1.329208 1.329210
													CHANNELS 3 Xrotation Yrotation Zrotation
													JOINT RightHandThumb4
													{
														OFFSET -1.839920 -1.062286 1.062280
														CHANNELS 3 Xrotation Yrotation Zrotation
														End Site
														{
															OFFSET 0.000000 0.000000 0.000000
														}
													}
												}
											}
										}
										JOINT RightHandIndex1
										{
											OFFSET -8.415245 -0.274536 2.401452
											CHANNELS 3 Xrotation Yrotation Zrotation
											JOINT RightHandIndex2
											{
												OFFSET -3.031937 0.000000 0.000000
												CHANNELS 3 Xrotation Yrotation Zrotation
												JOINT RightHandIndex3
												{
													OFFSET -2.839401 0.000000 0.000000
													CHANNELS 3 Xrotation Yrotation Zrotation
													JOINT RightHandIndex4
													{
														OFFSET -2.415825 0.000000 0.000000
														CHANNELS 3 Xrotation Yrotation Zrotation
														End Site
														{
															OFFSET 0.000000 0.000000 0.000000
														}
													}
												}
											}
										}
										JOINT RightHandMiddle1
										{
											OFFSET -8.445801 0.000000 0.000000
											CHANNELS 3 Xrotation Yrotation Zrotation
											JOINT RightHandMiddle2
											{
												OFFSET -3.261909 0.000000 0.000000
												CHANNELS 3 Xrotation Yrotation Zrotation
												JOINT RightHandMiddle3
												{
													OFFSET -3.026810 0.000000 0.000000
													CHANNELS 3 Xrotation Yrotation Zrotation
													JOINT RightHandMiddle4
													{
														OFFSET -2.703903 0.000000 0.000000
														CHANNELS 3 Xrotation Yrotation Zrotation
														End Site
														{
															OFFSET 0.000000 0.000000 0.000000
														}
													}
												}
											}
										}
										JOINT RightHandRing1
										{
											OFFSET -8.515076 0.086319 -2.037783
											CHANNELS 3 Xrotation Yrotation Zrotation
											JOINT RightHandRing2
											{
												OFFSET -2.681702 0.000000 0.000000
												CHANNELS 3 Xrotation Yrotation Zrotation
												JOINT RightHandRing3
												{
													OFFSET -2.605904 0.000000 0.000000
													CHANNELS 3 Xrotation Yrotation Zrotation
													JOINT RightHandRing4
													{
														OFFSET -2.190498 0.000000 0.000000
														CHANNELS 3 Xrotation Yrotation Zrotation
														End Site
														{
															OFFSET 0.000000 0.000000 0.000000
														}
													}
												}
											}
										}
										JOINT RightHandPinky1
										{
											OFFSET -7.677589 -0.312988 -4.019109
											CHANNELS 3 Xrotation Yrotation Zrotation
											JOINT RightHandPinky2
											{
												OFFSET -2.464798 0.000000 0.000000
												CHANNELS 3 Xrotation Yrotation Zrotation
												JOINT RightHandPinky3
												{
													OFFSET -1.935104 0.000000 0.000000
													CHANNELS 3 Xrotation Yrotation Zrotation
													JOINT RightHandPinky4
													{
														OFFSET -1.670403 0.000000 0.000000
														CHANNELS 3 Xrotation Yrotation Zrotation
														End Site
														{
															OFFSET 0.000000 0.000000 0.000000
														}
													}
												}
											}
										}
									}
								}
							}
						}
					}
				}
			}
		}
	}
	JOINT LeftUpLeg
	{
		OFFSET 8.773100 -5.559700 -1.002700
		CHANNELS 3 Xrotation Yrotation Zrotation
		JOINT LeftLeg
		{
			OFFSET 0.054829 -40.680889 -3.279527
			CHANNELS 3 Xrotation Yrotation Zrotation
			JOINT LeftFoot
			{
				OFFSET -0.054837 -37.885715 -1.253853
				CHANNELS 3 Xrotation Yrotation Zrotation
				JOINT LeftToeBase
				{
					OFFSET -0.956007 -9.084614 13.445478
					CHANNELS 3 Xrotation Yrotation Zrotation
					JOINT LeftToe_End
					{
						OFFSET -0.647369 0.327814 6.792853
						CHANNELS 3 Xrotation Yrotation Zrotation
						End Site
						{
							OFFSET 0.000000 0.000000 0.000000
						}
					}
				}
			}
		}
	}
	JOINT RightUpLeg
	{
		OFFSET -8.773100 -5.559700 -1.301000
		CHANNELS 3 Xrotation Yrotation Zrotation
		JOINT RightLeg
		{
			OFFSET -0.054804 -40.680939 -2.697344
			CHANNELS 3 Xrotation Yrotation Zrotation
			JOINT RightFoot
			{
				OFFSET 0.054807 -37.885651 -1.441477
				CHANNELS 3 Xrotation Yrotation Zrotation
				JOINT RightToeBase
				{
					OFFSET 0.955908 -9.085550 13.639909
					CHANNELS 3 Xrotation Yrotation Zrotation
					JOINT RightToe_End
					{
						OFFSET 0.647336 0.327335 6.933457
						CHANNELS 3 Xrotation Yrotation Zrotation
						End Site
						{
							OFFSET 0.000000 0.000000 0.000000
						}
					}
				}
			}
		}
	}
}
MOTION
Frames: 5
Frame Time: 0.016667
0.074919 76.030815 -1.493522 -19.796378 -108.287390 -22.385574 45.224018 -6.647297 15.531951 -1.875259 -1.819381 -9.220228 0.000000 0.000000 0.000000 -2.248280 -3.175810 -8.783081 3.559539 13.219954 3.173681 -23.349722 71.537298 5.404397 -0.000000 0.000001 -0.000000 -5.446575 -10.990415 -13.563365 0.000000 0.000000 0.000000 101.764457 -99.931630 98.502536 0.000036 -80.832960 0.000007 -30.023220 36.876618 25.817140 27.368993 -31.211147 -2.623200 12.878171 61.108446 3.450918 -4.565739 23.207163 18.818223 0.000006 0.000002 0.000003 3.409501 7.638119 -64.576310 3.045597 5.136669 -61.306706 0.816298 2.984813 -30.585024 -0.000001 0.000000 0.000001 3.409517 7.638122 -64.576310 3.045588 5.136666 -61.306719 0.816308 2.984807 -30.585024 0.000002 0.000000 -0.000004 3.409530 7.638105 -64.576310 3.045588 5.136677 -61.306726 0.816302 2.984804 -30.585020 0.000002 -0.000001 0.000006 3.409538 7.638112 -64.576304 3.045605 5.136671 -61.306712 0.816307 2.984819 -30.585020 0.000002 -0.000001 0.000002 3.102011 12.200890 -6.810020 0.000000 0.000000 0.000000 -34.115429 -11.396829 22.142693 0.000002 122.252900 0.000008 -78.929550 14.969582 0.125180 14.999015 22.306134 9.028888 11.182885 -54.589966 -4.064288 -3.441225 -25.198830 -18.719353 -0.000000 0.000007 0.000004 2.897205 -6.567307 67.103351 2.658704 -4.207435 64.564330 0.718984 -2.487915 32.233326 0.000000 -0.000000 -0.000001 2.897205 -6.567298 67.103344 2.658710 -4.207452 64.564337 0.718985 -2.487912 32.233340 -0.000000 0.000000 -0.000000 2.897221 -6.567320 67.103344 2.658732 -4.207439 64.564344 0.718975 -2.487906 32.233329 0.000000 -0.000000 -0.000000 2.897212 -6.567300 67.103351 2.658751 -4.207423 64.564323 0.718986 -2.487913 32.233326 -0.000000 -0.000000 -0.000001 -46.191466 -8.678925 35.197836 70.268139 -8.646763 9.939042 1.952176 -10.253410 -29.788880 -30.380989 0.582712 -2.516660 -0.000000 0.000001 0.000000 -58.919438 -1.534119 5.201026 77.047307 9.696302 -1.250725 -23.699670 1.012329 -3.680624 -0.000050 0.000009 0.000010 -0.000000 -0.000001 0.000000 
0.051498 76.099289 -1.438825 -19.875965 -108.411939 -22.443728 45.160647 -6.581709 15.407903 -1.903878 -1.789337 -9.185927 0.000000 0.000000 0.000000 -2.271869 -3.139464 -8.753544 3.716968 13.183434 3.266451 -22.824146 71.542625 4.904714 -0.000001 -0.000001 -0.000001 -5.440816 -11.060178 -13.543656 0.000000 0.000000 0.000000 103.075628 -99.979715 99.627823 0.000155 -80.557430 0.000142 -30.838622 35.719096 25.578917 27.368998 -31.211150 -2.623198 12.878153 61.108446 3.450910 -4.565738 23.207161 18.818232 -0.000001 -0.000003 0.000004 3.409501 7.638121 -64.576310 3.045597 5.136670 -61.306706 0.816294 2.984815 -30.585020 -0.000000 -0.000001 0.000003 3.409515 7.638123 -64.576310 3.045586 5.136662 -61.306719 0.816309 2.984806 -30.585020 0.000002 0.000000 -0.000002 3.409527 7.638106 -64.576310 3.045591 5.136677 -61.306726 0.816305 2.984803 -30.585020 0.000001 0.000000 -0.000001 3.409537 7.638111 -64.576297 3.045601 5.136674 -61.306712 0.816309 2.984820 -30.585020 -0.000001 0.000001 -0.000001 3.050691 12.148361 -6.530232 0.000000 0.000000 0.000000 -34.049340 -10.938660 21.517323 0.000013 122.335491 0.000008 -78.514623 14.203817 -1.042604 14.999013 22.306133 9.028888 11.182894 -54.589959 -4.064278 -3.441223 -25.198824 -18.719346 0.000000 0.000006 0.000003 2.897204 -6.567307 67.103351 2.658704 -4.207436 64.564330 0.718984 -2.487915 32.233329 0.000001 -0.000000 -0.000000 2.897204 -6.567299 67.103344 2.658710 -4.207452 64.564330 0.718984 -2.487912 32.233329 0.000000 0.000000 0.000000 2.897219 -6.567320 67.103344 2.658733 -4.207440 64.564344 0.718976 -2.487905 32.233326 -0.000000 0.000000 -0.000000 2.897211 -6.567300 67.103357 2.658751 -4.207423 64.564323 0.718985 -2.487913 32.233326 0.000000 0.000000 -0.000000 -46.186620 -8.547677 35.188131 70.184831 -8.644870 9.939417 1.981506 -10.185683 -29.789494 -30.442423 0.577819 -2.490855 -0.000000 0.000000 0.000000 -58.903025 -1.464311 5.232927 76.887508 9.728161 -1.295256 -23.628724 0.995051 -3.615299 -0.000051 0.000008 0.000010 0.000000 -0.000001 0.000000 
0.025131 76.188309 -1.382874 -19.956349 -108.526959 -22.506047 45.064789 -6.511396 15.276782 -1.922418 -1.760739 -9.141062 0.000000 0.000000 0.000000 -2.284893 -3.102369 -8.713873 3.868031 13.138856 3.373984 -22.156548 71.536806 4.256544 -0.000000 -0.000001 -0.000001 -5.428274 -11.143839 -13.494470 0.000000 0.000000 0.000000 104.241596 -100.073794 100.576598 0.000049 -80.249873 0.000069 -31.549935 34.430519 25.324023 27.368998 -31.211150 -2.623201 12.878163 61.108453 3.450913 -4.565740 23.207156 18.818226 0.000000 0.000000 0.000003 3.409500 7.638118 -64.576317 3.045598 5.136671 -61.306706 0.816293 2.984813 -30.585017 0.000000 -0.000000 -0.000001 3.409515 7.638121 -64.576310 3.045588 5.136663 -61.306712 0.816310 2.984805 -30.585017 0.000000 -0.000000 0.000000 3.409529 7.638107 -64.576304 3.045590 5.136676 -61.306726 0.816302 2.984805 -30.585020 0.000000 -0.000000 -0.000000 3.409537 7.638113 -64.576310 3.045602 5.136672 -61.306712 0.816309 2.984819 -30.585024 0.000001 -0.000001 0.000004 2.990070 12.057441 -6.226292 0.000000 0.000000 0.000000 -34.009523 -10.426795 20.846979 0.000025 122.415431 0.000002 -78.034884 13.424404 -2.195844 14.999013 22.306134 9.028885 11.182884 -54.589959 -4.064292 -3.441221 -25.198825 -18.719346 -0.000000 0.000006 0.000002 2.897205 -6.567307 67.103344 2.658704 -4.207436 64.564330 0.718984 -2.487914 32.233326 -0.000001 -0.000000 0.000000 2.897204 -6.567298 67.103337 2.658709 -4.207452 64.564330 0.718984 -2.487912 32.233340 0.000000 -0.000000 0.000002 2.897220 -6.567319 67.103344 2.658732 -4.207439 64.564351 0.718975 -2.487906 32.233322 0.000000 0.000000 -0.000001 2.897212 -6.567300 67.103357 2.658751 -4.207423 64.564323 0.718985 -2.487913 32.233329 -0.000001 -0.000000 -0.000001 -46.172140 -8.400017 35.182103 70.060365 -8.642875 9.940166 2.013404 -10.145981 -29.790242 -30.449472 0.568493 -2.449288 -0.000000 -0.000001 0.000000 -58.853978 -1.395926 5.259119 76.680314 9.766100 -1.338817 -23.540860 0.976696 -3.547395 -0.000048 0.000008 0.000011 -0.000000 -0.000001 -0.000000 
-0.004381 76.295494 -1.326018 -20.040366 -108.630491 -22.575232 44.940292 -6.436859 15.142801 -1.930694 -1.734257 -9.086042 0.000000 0.000000 0.000000 -2.287260 -3.065347 -8.664333 4.007908 13.087052 3.493701 -21.359615 71.518310 3.473017 -0.000000 -0.000003 0.000002 -5.408392 -11.240300 -13.413703 0.000000 0.000000 0.000000 105.212070 -100.215179 101.310488 -0.000018 -79.927283 -0.000029 -32.147409 33.051412 25.059904 27.368995 -31.211150 -2.623202 12.878162 61.108453 3.450920 -4.565744 23.207159 18.818228 -0.000003 -0.000001 0.000002 3.409500 7.638119 -64.576317 3.045598 5.136670 -61.306706 0.816295 2.984814 -30.585020 -0.000001 0.000000 -0.000001 3.409515 7.638122 -64.576310 3.045589 5.136666 -61.306719 0.816311 2.984807 -30.585020 -0.000001 -0.000000 -0.000001 3.409528 7.638107 -64.576310 3.045589 5.136675 -61.306726 0.816300 2.984805 -30.585020 -0.000001 0.000001 -0.000003 3.409537 7.638112 -64.576304 3.045603 5.136671 -61.306712 0.816312 2.984818 -30.585020 0.000001 0.000000 -0.000000 2.922255 11.928443 -5.906274 0.000000 0.000000 0.000000 -34.003649 -9.874484 20.144402 0.000023 122.501137 -0.000006 -77.505585 12.642471 -3.317790 14.999013 22.306136 9.028892 11.182891 -54.589966 -4.064286 -3.441226 -25.198824 -18.719347 0.000003 0.000007 0.000004 2.897205 -6.567307 67.103344 2.658705 -4.207435 64.564323 0.718985 -2.487915 32.233333 -0.000000 0.000000 0.000002 2.897204 -6.567299 67.103344 2.658710 -4.207452 64.564330 0.718984 -2.487911 32.233336 -0.000001 0.000000 -0.000001 2.897219 -6.567319 67.103344 2.658734 -4.207439 64.564351 0.718976 -2.487905 32.233326 0.000001 -0.000000 -0.000001 2.897211 -6.567302 67.103357 2.658751 -4.207423 64.564323 0.718984 -2.487913 32.233329 -0.000000 -0.000000 -0.000000 -46.146698 -8.242561 35.175105 69.898080 -8.640849 9.941182 2.046501 -10.130007 -29.791229 -30.412087 0.555601 -2.394357 -0.000000 0.000001 0.000000 -58.774864 -1.337766 5.267511 76.431005 9.824489 -1.375432 -23.437021 0.959923 -3.488183 -0.000050 0.000009 0.000010 -0.000000 0.000000 -0.000000 
-0.036953 76.418320 -1.268581 -20.131728 -108.721278 -22.654677 44.789331 -6.359432 15.009190 -1.928336 -1.710604 -9.021434 0.000000 0.000000 0.000000 -2.278729 -3.029271 -8.605325 4.132456 13.029238 3.622380 -20.452540 71.486235 2.574593 0.000001 0.000001 -0.000003 -5.380972 -11.347780 -13.300967 0.000000 0.000000 0.000000 105.957182 -100.402606 101.811080 -0.000014 -79.605868 -0.000057 -32.622531 31.620125 24.795511 27.368993 -31.211150 -2.623201 12.878154 61.108453 3.450913 -4.565736 23.207161 18.818228 -0.000000 0.000004 0.000001 3.409499 7.638119 -64.576304 3.045599 5.136670 -61.306712 0.816295 2.984814 -30.585020 -0.000000 -0.000000 0.000002 3.409515 7.638122 -64.576304 3.045588 5.136663 -61.306712 0.816309 2.984806 -30.585020 0.000001 -0.000001 0.000004 3.409528 7.638107 -64.576304 3.045590 5.136677 -61.306719 0.816302 2.984807 -30.585020 -0.000001 -0.000000 0.000001 3.409536 7.638113 -64.576304 3.045604 5.136671 -61.306719 0.816310 2.984820 -30.585020 -0.000001 -0.000001 0.000003 2.849440 11.763001 -5.578245 0.000000 0.000000 0.000000 -34.037739 -9.295659 19.426021 0.000002 122.599847 0.000021 -76.937805 11.870689 -4.391228 14.999015 22.306129 9.028888 11.182894 -54.589963 -4.064281 -3.441220 -25.198822 -18.719346 -0.000000 0.000006 0.000002 2.897205 -6.567306 67.103344 2.658703 -4.207435 64.564330 0.718984 -2.487913 32.233322 0.000001 -0.000000 0.000001 2.897205 -6.567298 67.103344 2.658709 -4.207453 64.564330 0.718983 -2.487912 32.233333 -0.000000 0.000000 -0.000001 2.897220 -6.567320 67.103344 2.658732 -4.207439 64.564344 0.718975 -2.487905 32.233322 -0.000000 0.000000 0.000001 2.897212 -6.567299 67.103357 2.658750 -4.207424 64.564317 0.718986 -2.487913 32.233326 0.000000 -0.000000 0.000001 -46.108818 -8.081661 35.162299 69.701124 -8.638794 9.942449 2.079981 -10.131673 -29.792288 -30.341449 0.540082 -2.329608 0.000000 -0.000000 0.000000 -58.669153 -1.295438 5.251039 76.144759 9.911322 -1.401642 -23.318479 0.946507 -3.444346 -0.000050 0.000009 0.000010 0.000000 -0.000001 -0.000000 
